<svg width="110" height="22" viewBox="0 0 110 22" fill="none" xmlns="http://www.w3.org/2000/svg">
<path d="M22.5326 9.73518C22.5326 11.9538 22.269 13.7671 21.7462 15.171C20.9467 17.2977 19.6243 18.9439 17.788 20.0887C16.0175 21.1876 13.9132 21.7433 11.4882 21.7433C7.53869 21.7433 4.51179 20.4648 2.39428 17.9119C0.795165 15.9732 0 13.6585 0 10.9719C0 7.99288 0.935746 5.49014 2.80285 3.46372C4.92475 1.15318 7.88136 0 11.6858 0C14.2251 0 16.3778 0.618372 18.1438 1.85094C19.4047 2.73254 20.481 4.0236 21.3728 5.74083L16.079 7.7965C15.6265 6.86059 15.0993 6.15865 14.5019 5.68652C13.6408 5.02636 12.6128 4.69211 11.4223 4.69211C8.99722 4.69211 7.30146 5.87871 6.34814 8.25193C5.9879 9.12517 5.81217 10.0277 5.81217 10.9594C5.81217 12.8981 6.45797 14.5109 7.75395 15.8061C8.71167 16.7671 9.99008 17.2476 11.5892 17.2476C13.0082 17.2476 14.1416 16.8548 14.9675 16.0693C15.5167 15.5512 15.8769 14.7908 16.0439 13.7755H11.431V9.72265H22.5326V9.73518ZM47.3189 21.0915H35.018V0.614194H40.6017V16.671H47.3189V21.0915ZM79.6973 0.614194L70.5243 21.0915H66.1751L57.134 0.614194H63.2185L68.398 13.0652L73.6259 0.614194H79.6973ZM109.014 21.0915H102.072L96.7435 13.2616V21.0915H91.1598V0.614194H99.8539C102.398 0.614194 104.278 1.3412 105.499 2.79521C106.483 3.9651 106.98 5.34391 106.98 6.92326C106.98 8.74077 106.413 10.1864 105.279 11.2686C104.555 11.958 103.553 12.4385 102.283 12.7101L109.014 21.0915ZM101.167 7.21991C101.167 6.48873 100.886 5.87454 100.328 5.37315C99.8056 4.90102 98.9577 4.66704 97.7891 4.66704H96.7435V9.79368H97.7891C98.9665 9.79368 99.8188 9.5597 100.328 9.08756C100.886 8.57783 101.167 7.9511 101.167 7.21991Z" fill="#211E1F"/>
</svg>
